<svg xmlns="http://www.w3.org/2000/svg" xmlns:xlink="http://www.w3.org/1999/xlink" width="1920" zoomAndPan="magnify" viewBox="0 0 1440 749.999995" height="1000" preserveAspectRatio="xMidYMid meet" version="1.0"><defs><clipPath id="dc2ebee6ac"><path d="M 30 0 L 369 0 L 369 281 L 30 281 Z M 30 0 " clip-rule="nonzero"/></clipPath><clipPath id="ad0ac16bce"><path d="M 56.25 412.5 L -129.367188 226.882812 L 241.867188 -144.347656 L 427.480469 41.269531 Z M 56.25 412.5 " clip-rule="nonzero"/></clipPath><clipPath id="bb456c83ab"><path d="M 56.25 412.5 L -129.367188 226.882812 L 241.867188 -144.347656 L 427.480469 41.269531 Z M 56.25 412.5 " clip-rule="nonzero"/></clipPath><clipPath id="db2fbe1f39"><path d="M 0 218 L 10 218 L 10 271 L 0 271 Z M 0 218 " clip-rule="nonzero"/></clipPath><clipPath id="b604934e07"><path d="M 56.25 412.5 L -129.367188 226.882812 L 241.867188 -144.347656 L 427.480469 41.269531 Z M 56.25 412.5 " clip-rule="nonzero"/></clipPath><clipPath id="6f1fc2c42b"><path d="M 56.25 412.5 L -129.367188 226.882812 L 241.867188 -144.347656 L 427.480469 41.269531 Z M 56.25 412.5 " clip-rule="nonzero"/></clipPath><clipPath id="1eab63f648"><path d="M 24 299 L 108 299 L 108 392 L 24 392 Z M 24 299 " clip-rule="nonzero"/></clipPath><clipPath id="dd26d11e4c"><path d="M 56.25 412.5 L -129.367188 226.882812 L 241.867188 -144.347656 L 427.480469 41.269531 Z M 56.25 412.5 " clip-rule="nonzero"/></clipPath><clipPath id="d7f4dbbce1"><path d="M 56.25 412.5 L -129.367188 226.882812 L 241.867188 -144.347656 L 427.480469 41.269531 Z M 56.25 412.5 " clip-rule="nonzero"/></clipPath><clipPath id="befc9de597"><path d="M 0 259 L 50 259 L 50 332 L 0 332 Z M 0 259 " clip-rule="nonzero"/></clipPath><clipPath id="5149bf110a"><path d="M 56.25 412.5 L -129.367188 226.882812 L 241.867188 -144.347656 L 427.480469 41.269531 Z M 56.25 412.5 " clip-rule="nonzero"/></clipPath><clipPath id="4f0f52585a"><path d="M 56.25 412.5 L -129.367188 226.882812 L 241.867188 -144.347656 L 427.480469 41.269531 Z M 56.25 412.5 " clip-rule="nonzero"/></clipPath><clipPath id="bf6f2cae99"><path d="M 0 295 L 284 295 L 284 656 L 0 656 Z M 0 295 " clip-rule="nonzero"/></clipPath><clipPath id="291c40e22e"><path d="M 75 825 L -140.132812 674.585938 L 160.695312 244.320312 L 375.828125 394.734375 Z M 75 825 " clip-rule="nonzero"/></clipPath><clipPath id="b3e5b683b7"><path d="M -140.132812 674.585938 L 75 825 L 375.828125 394.734375 L 160.695312 244.320312 Z M -140.132812 674.585938 " clip-rule="nonzero"/></clipPath><clipPath id="4d4c3a5e37"><path d="M 68 693 L 105 693 L 105 738 L 68 738 Z M 68 693 " clip-rule="nonzero"/></clipPath><clipPath id="72eb70a6db"><path d="M 75 825 L -140.132812 674.585938 L 160.695312 244.320312 L 375.828125 394.734375 Z M 75 825 " clip-rule="nonzero"/></clipPath><clipPath id="fc71f47865"><path d="M -140.132812 674.585938 L 75 825 L 375.828125 394.734375 L 160.695312 244.320312 Z M -140.132812 674.585938 " clip-rule="nonzero"/></clipPath><clipPath id="642564f546"><path d="M 112 684 L 149 684 L 149 730 L 112 730 Z M 112 684 " clip-rule="nonzero"/></clipPath><clipPath id="7559d42820"><path d="M 75 825 L -140.132812 674.585938 L 160.695312 244.320312 L 375.828125 394.734375 Z M 75 825 " clip-rule="nonzero"/></clipPath><clipPath id="0fb547a5e8"><path d="M -140.132812 674.585938 L 75 825 L 375.828125 394.734375 L 160.695312 244.320312 Z M -140.132812 674.585938 " clip-rule="nonzero"/></clipPath><clipPath id="a9a7de56a4"><path d="M 12 689 L 63 689 L 63 744 L 12 744 Z M 12 689 " clip-rule="nonzero"/></clipPath><clipPath id="07483a6fbe"><path d="M 75 825 L -140.132812 674.585938 L 160.695312 244.320312 L 375.828125 394.734375 Z M 75 825 " clip-rule="nonzero"/></clipPath><clipPath id="2d4ddb974f"><path d="M -140.132812 674.585938 L 75 825 L 375.828125 394.734375 L 160.695312 244.320312 Z M -140.132812 674.585938 " clip-rule="nonzero"/></clipPath><clipPath id="1805dec86b"><path d="M 0 658 L 17 658 L 17 730 L 0 730 Z M 0 658 " clip-rule="nonzero"/></clipPath><clipPath id="bfef953ac2"><path d="M 75 825 L -140.132812 674.585938 L 160.695312 244.320312 L 375.828125 394.734375 Z M 75 825 " clip-rule="nonzero"/></clipPath><clipPath id="a092c79ad8"><path d="M -140.132812 674.585938 L 75 825 L 375.828125 394.734375 L 160.695312 244.320312 Z M -140.132812 674.585938 " clip-rule="nonzero"/></clipPath></defs><rect x="-144" width="1728" fill="#ffffff" y="-74.999999" height="899.999994" fill-opacity="1"/><rect x="-144" width="1728" fill="#5ca904" y="-74.999999" height="899.999994" fill-opacity="1"/><g clip-path="url(#dc2ebee6ac)"><g clip-path="url(#ad0ac16bce)"><g clip-path="url(#bb456c83ab)"><path fill="#ffffff" d="M 342.898438 -43.316406 C 376.929688 -9.285156 376.890625 26.351562 342.769531 62.617188 C 317.222656 89.75 291.035156 92.539062 267.957031 94.972656 C 248.03125 97.085938 230.824219 98.898438 214.265625 115.457031 C 191.875 137.847656 192.519531 159.167969 193.300781 183.851562 C 194.054688 208.019531 194.898438 235.394531 169.550781 260.746094 C 142.660156 287.632812 110.625 286.4375 81.644531 257.457031 C 47.132812 222.941406 -1.867188 140.371094 59.726562 74.902344 C 91.65625 40.957031 123.101562 29.246094 153.496094 17.929688 C 182.867188 6.972656 210.59375 -3.34375 240.320312 -33.074219 C 268.050781 -60.804688 313.996094 -72.214844 342.898438 -43.316406 Z M 342.898438 -43.316406 " fill-opacity="1" fill-rule="nonzero"/></g></g></g><g clip-path="url(#db2fbe1f39)"><g clip-path="url(#b604934e07)"><g clip-path="url(#6f1fc2c42b)"><path fill="#ffffff" d="M 4.101562 224.28125 C -4.886719 215.324219 -21.183594 217.175781 -32.355469 228.347656 C -43.554688 239.542969 -45.378906 255.878906 -36.410156 264.820312 C -27.46875 273.792969 -11.179688 271.949219 0.03125 260.769531 C 11.222656 249.578125 13.027344 233.238281 4.101562 224.28125 Z M 4.101562 224.28125 " fill-opacity="1" fill-rule="nonzero"/></g></g></g><g clip-path="url(#1eab63f648)"><g clip-path="url(#dd26d11e4c)"><g clip-path="url(#d7f4dbbce1)"><path fill="#ffffff" d="M 96.632812 303.710938 C 81.40625 292.746094 55.304688 302.609375 38.316406 325.628906 C 21.34375 348.695312 19.882812 376.277344 35.078125 387.230469 C 50.296875 398.175781 76.402344 388.339844 93.394531 365.28125 C 110.382812 342.203125 111.851562 314.65625 96.632812 303.710938 Z M 96.632812 303.710938 " fill-opacity="1" fill-rule="nonzero"/></g></g></g><g clip-path="url(#befc9de597)"><g clip-path="url(#5149bf110a)"><g clip-path="url(#4f0f52585a)"><path fill="#ffffff" d="M 41.246094 264.238281 C 29.101562 254.195312 7.9375 259.992188 -6.132812 277.214844 C -20.246094 294.414062 -21.8125 316.496094 -9.660156 326.5625 C 2.472656 336.597656 23.636719 330.753906 37.738281 313.605469 C 51.785156 296.351562 53.335938 274.273438 41.246094 264.238281 Z M 41.246094 264.238281 " fill-opacity="1" fill-rule="nonzero"/></g></g></g><g clip-path="url(#bf6f2cae99)"><g clip-path="url(#291c40e22e)"><g clip-path="url(#b3e5b683b7)"><path fill="#ffffff" d="M 258.730469 312.863281 C 219.289062 285.289062 184.203125 291.535156 154.441406 331.457031 C 132.179688 361.34375 134 387.617188 135.628906 410.765625 C 137.019531 430.753906 138.234375 448.011719 124.816406 467.203125 C 106.671875 493.15625 85.566406 496.238281 61.121094 499.769531 C 37.191406 503.242188 10.089844 507.183594 -10.453125 536.566406 C -32.242188 567.730469 -25.476562 599.066406 8.109375 622.550781 C 48.113281 650.519531 137.960938 684.371094 191.691406 612.308594 C 219.546875 574.949219 225.601562 541.945312 231.441406 510.042969 C 237.113281 479.210938 242.4375 450.113281 266.527344 415.65625 C 289 383.515625 292.226562 336.285156 258.730469 312.863281 Z M 258.730469 312.863281 " fill-opacity="1" fill-rule="nonzero"/></g></g></g><g clip-path="url(#4d4c3a5e37)"><g clip-path="url(#72eb70a6db)"><g clip-path="url(#fc71f47865)"><path fill="#ffffff" d="M 71.050781 708.488281 C 66.007812 720.300781 68.699219 732.992188 77.160156 736.839844 C 85.566406 740.75 96.457031 734.355469 101.527344 722.523438 C 106.570312 710.710938 103.84375 698.019531 95.429688 694.15625 C 87.019531 690.328125 76.054688 696.660156 71.050781 708.488281 Z M 71.050781 708.488281 " fill-opacity="1" fill-rule="nonzero"/></g></g></g><g clip-path="url(#642564f546)"><g clip-path="url(#7559d42820)"><g clip-path="url(#0fb547a5e8)"><path fill="#ffffff" d="M 115.179688 699.695312 C 110.144531 711.511719 112.84375 724.207031 121.296875 728.050781 C 129.699219 731.960938 140.578125 725.566406 145.660156 713.734375 C 150.703125 701.921875 147.992188 689.226562 139.574219 685.371094 C 131.152344 681.539062 120.191406 687.886719 115.179688 699.695312 Z M 115.179688 699.695312 " fill-opacity="1" fill-rule="nonzero"/></g></g></g><g clip-path="url(#a9a7de56a4)"><g clip-path="url(#07483a6fbe)"><g clip-path="url(#2d4ddb974f)"><path fill="#ffffff" d="M 54.296875 693.125 C 64.679688 700.410156 65.703125 716.78125 56.648438 729.734375 C 47.574219 742.710938 31.808594 747.355469 21.4375 740.082031 C 11.046875 732.839844 10.019531 716.480469 19.078125 703.488281 C 28.144531 690.523438 43.921875 685.894531 54.296875 693.125 Z M 54.296875 693.125 " fill-opacity="1" fill-rule="nonzero"/></g></g></g><g clip-path="url(#1805dec86b)"><g clip-path="url(#bfef953ac2)"><g clip-path="url(#a092c79ad8)"><path fill="#ffffff" d="M 8.476562 663.511719 C 20.480469 673.71875 18.464844 695.570312 3.957031 712.429688 C -10.519531 729.324219 -31.992188 734.714844 -44.019531 724.507812 C -56.015625 714.304688 -53.953125 692.449219 -39.527344 675.570312 C -24.984375 658.734375 -3.511719 653.355469 8.476562 663.511719 Z M 8.476562 663.511719 " fill-opacity="1" fill-rule="nonzero"/></g></g></g><path fill="#ffffff" d="M 1147.367188 419.316406 C 1165.222656 388.9375 1187.582031 357.089844 1188.183594 320.644531 C 1188.960938 273.449219 1185.089844 240.484375 1193.726562 193.304688 C 1220.371094 47.871094 1423.585938 -37.5 1572.996094 27.339844 C 1719.28125 90.824219 1757.902344 200.019531 1758.277344 323.136719 C 1758.492188 393.488281 1717.886719 458.589844 1680.378906 509.285156 C 1608.984375 646.515625 1664.929688 769.132812 1670.183594 881.445312 C 1669.875 881.769531 1669.539062 882.070312 1669.222656 882.390625 L 1351.503906 882.390625 C 1351.503906 882.390625 1352.953125 817.535156 1353.726562 781.550781 C 1349.964844 674.617188 1291.101562 694.328125 1244.449219 688.785156 C 1201.324219 683.660156 1188.417969 661.140625 1193.785156 624.582031 C 1196.285156 607.5625 1193.585938 593.574219 1183.867188 584.898438 C 1180.476562 585.414062 1173.488281 581.226562 1170.644531 569.570312 C 1168.050781 558.902344 1171.8125 554.558594 1174.136719 552.851562 C 1174.136719 552.84375 1174.144531 552.832031 1174.148438 552.828125 C 1174.136719 552.824219 1160.945312 551.1875 1161.242188 535.351562 C 1161.542969 519.507812 1167.972656 517.023438 1167.972656 517.023438 C 1171.054688 515.195312 1170.296875 492.835938 1167.054688 485.015625 C 1161.972656 472.78125 1139.371094 476.769531 1132.148438 460.738281 C 1125.085938 445.03125 1138.636719 434.167969 1147.367188 419.316406 " fill-opacity="1" fill-rule="nonzero"/></svg>